<svg xmlns="http://www.w3.org/2000/svg" viewBox="0 0 445 125.93"><g id="Layer_2" data-name="Layer 2"><g id="Layer_1-2" data-name="Layer 1"><path d="M0,.93H36.13c.14,1.39.37,2.66.37,3.93q0,58.59,0,117.17a30.56,30.56,0,0,1-.49,3.9H8c-.08-2-.24-4-.24-6q0-45.46,0-90.93V22.93H0Z"/><path d="M445,93.93H415.55V88.09c0-17.48,0-35,0-52.45,0-9.5-3-12.48-12.64-12.53-12.79-.06-25.58,0-38.71,0V1.43c.17-.14.42-.54.66-.54,16.81.07,33.66-.54,50.41.48,15.69.95,25.36,10.5,28.9,25.83a8.4,8.4,0,0,0,.85,1.73Z"/><path d="M52.5,71.14H94.22V48.93c0-5,.06-10,0-15C94.1,26.64,91,23.4,83.42,23.17c-7.33-.23-14.66-.06-22-.09-1.28,0-2.57-.16-4.07-.26V0C71.48.75,85.53.35,99.18,2.52c15.09,2.4,23.76,14.42,24.28,30.51.33,10.32.37,20.67,0,31-.18,5,1.12,7.55,6.42,7.35a16.54,16.54,0,0,1,4,.9V93.5H52.5Z"/><path d="M280.8,1.08V22.8H264.55V93.41H235.34V23.34h-37V1.08Z"/><path d="M311.48,23.08H296.42V.94h44.15c.11,1,.28,1.82.28,2.62,0,20.49.19,41-.1,61.47-.23,16.08-8.56,27.11-22.46,29.35-6.14,1-12.58.26-18.88,0-2.62-.1-5.21-.93-8.05-1.47V71.35c3.73.22,7.19.65,10.64.59,5.59-.1,8.52-2.68,9.21-7.86a51.79,51.79,0,0,0,.26-6.48C311.49,46.31,311.48,35,311.48,23.08Z"/><path d="M139.8,23.38V1h42.06V54.08H153.15V23.38Z"/><path d="M391.83,41.57V93.5H363.22V84.24c0-7.48-.19-15,.08-22.45A61.05,61.05,0,0,1,365,49c1.29-5.06,4.16-8.25,10.34-7.57C380.91,42.05,386.58,41.57,391.83,41.57Z"/></g></g></svg>