<svg xmlns="http://www.w3.org/2000/svg" viewBox="0 0 1389.33 2114.76"><g id="Layer_2" data-name="Layer 2"><g id="Layer_1-2" data-name="Layer 1"><path d="M0,1607c1.59-8.45,2.81-17,4.84-25.35a152.81,152.81,0,0,1,298.49,7.24c.28,1.43.65,2.85.82,3.58q151.31-151.32,302.68-302.75H245.56c-73.62,0-135.5-49.5-150.23-121.6-10.87-53.16,2.83-100.39,41-138.81Q343.43,821.17,551.5,614c3-3,3.24-5.06,1.59-8.86-18.43-42.31-28-86.56-26.89-132.75,1.71-72.08,25.13-136.5,70.33-192.76a350.22,350.22,0,0,1,25.21-27.76q61.11-61.35,122.58-122.38c21-21,53.2-21.12,74.41-.1q24,23.81,47.78,47.81c1.29,1.29,2.29,2.88,4.65,5.9,1.74-2.69,2.58-4.64,4-6q80.46-80.61,161-161.11C1057-4.87,1089.55-5.32,1110,14.71s20.63,53.58.37,73.86q-81,81.12-162.13,162.14A65.08,65.08,0,0,1,942.7,255c2.74,2,4.7,3.1,6.22,4.62q155.25,155.2,310.45,310.47c21.77,21.78,21.83,53.82.12,75.51-44.15,44.12-87.68,88.88-132.63,132.17-45.66,44-100.71,70.51-163.19,81.13-66.68,11.34-130.41,1.43-191.19-28-2.42-1.17-4-1.29-6.05.8q-75,75.15-150,150.17a22.08,22.08,0,0,0-1.53,2.11h6.2q178.2,0,356.41,0c36.27,0,69.1,11.05,97,34.42,28.66,24,48.43,53.53,54.07,91.7,7.76,52.49-5.81,98-43.22,135.55q-244.47,245.11-489.45,489.72-35.22,35.23-70.6,70.29c-1.28,1.28-2.5,2.62-4.32,4.53,3.08.75,5.54,1.41,8,1.94a152.4,152.4,0,0,1,118.9,125.7c13,84.72-44.68,162.63-129.63,175-3.56.52-7.09,1.21-10.64,1.82H142.17c-3.7-.64-7.39-1.4-11.11-1.91-60.61-8.43-111.76-54.59-126-114-2.08-8.67-3.37-17.53-5-26.3ZM614.42,698c-.24.21-1.24,1-2.16,2Q410.68,901.63,209.15,1103.33c-13.43,13.45-16.81,30.15-11.43,48.1,6.38,21.3,25.54,34.84,47.86,34.84H730.14c1.83,0,3.67-.09,5.5,0,14.25.88,26.84,5.9,36.29,16.69,19.35,22.1,18,52.32-2.74,73.08L453.11,1592.24q-80,80-160,160c-10.21,10.23-22.34,16.41-36.81,16.91-29.92,1-53.84-22.35-53.9-52.39-.07-33,.06-66.1,0-99.14-.07-22.8-16.36-43-38.19-47.79-31.47-6.86-60.19,16.49-60.2,49.17q-.09,170.49,0,341a56.16,56.16,0,0,0,.68,10,50,50,0,0,0,48.85,40.76q171.69.07,343.39,0c1.17,0,2.34,0,3.5-.11,30.74-1.62,53-33.8,43.72-63.12-6.87-21.63-25.42-35.15-48.64-35.21-32.54-.08-65.08.21-97.61-.2a58.44,58.44,0,0,1-20.42-4c-34.52-13.77-42.74-58.33-15.79-85.32q94.62-94.77,189.5-189.28,230.67-230.64,461.26-461.36a50.64,50.64,0,0,0,12.84-21.17c9.55-31.17-14.31-63.15-47.18-63.15q-239.77,0-479.56,0c-4,0-8,0-12-.36-21.58-1.65-37.47-12.07-45.41-32.26-8.19-20.83-4.35-40.16,11.64-56.19q113.65-114,227.6-227.64c1.37-1.37,3.45-2,4.84-2.81Zm535.32-89.78Q965.3,423.78,781.08,239.51c-.21.18-.85.67-1.42,1.23-29.08,29-58.28,57.8-87.14,87a218.45,218.45,0,0,0-21.43,25.05c-32.65,45-45.74,95.37-39.46,150.58q8,70.5,57.91,121.24c20.38,20.67,40.63,41.46,61.23,61.9,9.81,9.74,19.69,19.56,30.57,28,46.29,36,98.82,50.53,157.08,43.37,44.23-5.43,83.12-23.29,115.32-53.91s63.2-62.78,94.72-94.26C1149,609.15,1149.51,608.52,1149.74,608.26Z"/><path d="M1332.85,264c25.81,0,44.51,12.27,52.49,31.56a52.42,52.42,0,0,1-11.15,56.93Q1323.48,403.3,1272.64,454c-20.3,20.24-53.35,20.26-73.41.24a51.9,51.9,0,0,1-.27-73.38q50.77-51.14,101.89-101.92C1310.87,269,1323.21,264.17,1332.85,264Z"/><path d="M663.62,477c1.24-58.2,21.53-108.51,62.62-150.09a51.21,51.21,0,0,1,56.84-10.85c20.51,8.76,30.67,25.18,31.53,47,.57,14.39-5.07,27-15.1,37.49C769,432.43,760.41,469.64,773,511.7c9.82,33-8.7,63.12-42.56,68.6-22.51,3.64-46.43-10.82-54.73-33.09C668.25,527.32,663.78,500.91,663.62,477Z"/><path d="M827,704.79c-9.69-.6-19.4-2.44-27.2-8.46-11.58-8.93-23.76-17.66-33.28-28.57-25.23-28.93-10.22-73.6,25.94-83,19.4-5.06,36.12.15,50.66,13.58a183.94,183.94,0,0,0,14.56,12.17c17.59,13.11,25.59,33.59,20.15,54.67-5.57,21.6-19.84,34.45-41.78,38.69-1.63.31-3.28.57-4.94.75C829.78,704.73,828.44,704.72,827,704.79Z"/></g></g></svg>