<svg xmlns="http://www.w3.org/2000/svg" viewBox="0 0 745 745"><defs><style>.cls-1{fill:#fff;}.cls-2{fill:#34668a;}.cls-3{fill:#85a3b9;}</style></defs><g id="Layer_2" data-name="Layer 2"><g id="Layer_1-2" data-name="Layer 1"><path class="cls-1" d="M726,371c0,196.06-158.94,355-355,355S16,567.06,16,371A354.29,354.29,0,0,1,38.23,247.09,103.58,103.58,0,0,0,170,147.5a102.86,102.86,0,0,0-16.94-56.74A353.45,353.45,0,0,1,371,16C567.06,16,726,174.94,726,371Z"/><circle class="cls-1" cx="152.5" cy="246.5" r="86.5"/><circle class="cls-1" cx="90.5" cy="178.5" r="49.5"/><rect class="cls-1" x="33" y="82" width="32" height="97" rx="15.85" transform="translate(-72.67 62.46) rotate(-40.21)"/><g id="lx5uSk.tif"><path class="cls-2" d="M305,645.91A439.24,439.24,0,0,1,227.09,647a326.12,326.12,0,0,1-47.84-7.31c-1.56-.36-3.07-1.22-4.78-.5,109.33,84.83,289,97.92,418.86-18.32,142.22-127.33,145.09-332.53,32.36-463.78C500.73,11.63,300,9.27,172.4,107c8.14,12.33,11.29,26.57,14.54,40.79a86.23,86.23,0,0,1-1.26,43.38c-8.64-14.35-20.15-24-35.32-29a3.55,3.55,0,0,1-2.66-3.23c-2.94-23.16-14.33-41.17-34-54.69,7.9-6.9,15.32-13.72,23.09-20.11a372.93,372.93,0,0,1,171-78.34c10.9-1.88,21.78-4,32.92-4.08,1.25,0,2.67-.22,3.36-1.65h57c1.33,2,3.42,1.59,5.36,1.71,3.64.22,7.32.21,10.92.74,27,4,53.55,9.67,79.34,18.88a374.58,374.58,0,0,1,79.18,39A363.38,363.38,0,0,1,653.48,128a370.25,370.25,0,0,1,74.79,134.34,404.7,404.7,0,0,1,14.64,69.54c.45,3.64-1.64,8,2.09,11.09v60c-2.28-.14-1.61,1.58-1.69,2.76-.25,3.81-.14,7.66-.71,11.42-4,26.92-9.65,53.44-18.84,79.19a372.56,372.56,0,0,1-234.64,230c-27.31,9.08-55.36,15.35-84.26,17-1.46.08-3,.14-3.86,1.68H343c-.47-1.67-1.83-1.69-3.19-1.7-9-.1-17.72-1.78-26.53-3.13a357.69,357.69,0,0,1-96.49-29.3c-48.33-22.39-90.2-53.45-125.16-93.8A374.71,374.71,0,0,1,44,548.24a364.65,364.65,0,0,1-31.9-81.15c-5.22-20.27-9.43-40.8-10.43-61.83-.06-1.18.12-2.45-1.71-2.26V342c2.67,0,1.59-2,1.67-3.27C3.16,317.61,7.27,297,12.61,276.5a373.78,373.78,0,0,1,15.48-46,28.17,28.17,0,0,1,1.39-2.59c2.68.21,4.28,2.11,6.24,3.26a74.42,74.42,0,0,0,28.15,9.72c2.29.31,4.1.61,4.71,3.39,3.11,14.19,10.49,25.8,21.62,35.08.2.16.2.58.43,1.34a101,101,0,0,1-37.75-.61c-3.75,10.44-6,21.14-7.76,31.92a352.63,352.63,0,0,0-5.06,66.48c1,40.16,7.56,79.1,23.49,116.42,12.4,29.05,26.82,56.71,46.3,81.6,8.52,10.88,17.87,21,27.24,31.18,6.58,7.12,15.06,10.67,23.52,13.92,9.31,3.57,18.43,7.67,28,10.67a230.09,230.09,0,0,0,40.6,9,449,449,0,0,0,55.8,3.41c6.66,0,13.31-.45,20-.7C305,644.64,305,645.28,305,645.91Z"/><path class="cls-2" d="M303.48,113.49c-2.54-5.38-5.16-10.71-7.6-16.13-3.54-7.91-2.25-12.76,4.89-18.38l86.11,99.69c0,1.56-1.51,1.88-2.53,2.65a5.13,5.13,0,0,0,.49.73,177.22,177.22,0,0,0,31.22,26c14.09,9.37,27.82,19.31,42.09,28.4,10,6.38,20.66,11.72,31,17.58,25.63,14.52,52.14,27.51,76.66,44,13,8.7,25.51,18.05,36.09,29.57,11.59,12.61,22.34,26,30.17,41.38a3.8,3.8,0,0,0-.63.75c-21.78-20.38-43.86-40.41-68-58a368.17,368.17,0,0,0-44.14-27.07C497.6,273,475.9,261.41,454.82,248.79a484.16,484.16,0,0,1-58.56-41.7c-6.35-5.21-11.92-11.33-19-15.89-4.47,7-9.64,13.53-16.67,18.24-2.17-1.52-1.53-2.89,0-4.09a28.32,28.32,0,0,0,7.77-10.09c1.62-3.27,4.06-6.86,1.62-10.58a13.43,13.43,0,0,0-14.41-5.24,27.65,27.65,0,0,0-6.32,2.85c-21.87,13.71-43.76,27.4-65.49,41.32-6.08,3.9-12.29,7.63-17.73,12.55-3.12,2.82-6.54,4.89-4.91,9.83-2.53.16-2.73-1.65-3.31-2.87a30.85,30.85,0,0,0-6.47-8.73c-3.43-3.36-6-3.4-9.13.21-2.37,2.72-4.59,5.61-9.09,5.28,14.71-11.71,19-36.34,9.19-52-1.93-3.08-4.32-5.61-8.36-5.2-3.81.38-4.68,3.45-6.4,6.35-4.72,7.93-8.3,16.39-12.45,24.56-2.6,5.1-4.79,10.42-7,15.69-2.06,4.84-.55,9.14,2.87,12.65q15.1,15.57,30.51,30.84a13.14,13.14,0,0,0,13.87,2.68c17.68-6.38,36.47-6.26,54.6-9.86,3.92-.78,8.16-.69,12.26-1.51,10.84-2.18,17.9-9,23.27-18.07,1.64-2.8,3.15-5.72,6.15-7.92,2.92,3.43,1.29,7.64,2.12,11.27,2.27,9.93,7.46,18,13.76,25.59,20.41,24.6,41,49.22,53.71,78.91,9.76,22.72,18.27,46,28.51,68.5.38.85.27,1.92.49,3.79-8-8.1-16.51-14.17-26.35-18.19-21.73-8.89-43.38-6.57-64.93.59-23,7.65-43.24,20.43-62.43,35l-.73-.8c2.25-6,4.38-12.1,6.82-18a11.73,11.73,0,0,0,0-9.38c-5.56-14-16.66-22.5-29.28-29.16-14.07-7.41-29.47-10.51-45.17-12.19-4.4-.47-8.79-1-13.34-1.57,5.47-9.28,7.93-10.1,18.17-8.87,12.71,1.53,25.23,3.8,37.34,7.92,21.66,7.36,40.38,18.93,53.36,38.95C350.34,396.37,378,386.15,408.56,387c4.36-17.92-2.33-33.1-10.15-48.11-8.12-15.58-19.55-28.74-31.6-41.12-8.5-8.73-17.45-17.43-28.56-23.29-2.24-1.18-3.82-1.37-5.84-.45-7.7,3.52-15.62,4.09-24.07,3.17-12.13-1.31-24.25.4-36.25,2.31-8.6,1.37-17.17,3-26.4,4.56,5.61,6.67,10.9,12.81,16,19.1C267.25,310,267,318,260.37,324c-11.08,10.05-22.53,19.7-33.83,29.52-2.12,1.83-4.28,3.63-6.78,5.75L117.23,242.14l51.49-45.69c8.82,7.39,14.59,17,22.63,24.31,2.46-1.3,1.68-2.81,1-4.65-6.52-16.4-2.41-28.87,12.52-38,1.59-1,2.35-1.76,2.37-3.79.12-12.2,11.09-25.68,23-28.41,1.5-.35,2.79-.46,3.53-2.17,4.72-11,13.58-16.27,25-17.83a69.74,69.74,0,0,1,3-8c4.56-8.88,14.48-12.88,25.21-10.57,5.78,1.25,10.79,4.25,16.08,6.63l.56.7C304,114.29,303.88,113.88,303.48,113.49ZM282.16,184c4.6-.06,11-4.22,12.54-8,2.46-6.19-.58-10.81-4.65-14.87-7.66-7.64-15.67-14.94-23.23-22.68-3.55-3.63-7.27-4.18-11.56-2.34-4.66,2-8.56,5-10.65,9.84-1,2.27-1.89,4.54.62,6.57,10.43,8.44,19.67,18.11,28.88,27.82C276.24,182.56,278.89,184.46,282.16,184Zm-58.63-2c2.77-3.83,6.52-6.51,11.31-5.59,8,1.53,16.75,12.56,17.36,21.08.34,4.58,6,9.26,10.22,7.7s7.83-4.57,9.21-9.06c1.23-4,.9-7.85-2.58-11.28-7.93-7.82-15.71-15.77-24-23.29-8.43-7.69-14.27-7.83-22.82,1C215.57,169.44,213.77,177.59,223.53,182Zm60.6-65.46c-7.5.52-11.91,3.34-14.46,8.94-2.18,4.8.4,8.13,3.3,11.49,6.75,7.83,15,14,23,20.44a8.86,8.86,0,0,0,10.52.38c6.6-4,7.08-11.27.82-18.39q-8.55-9.72-17.52-19.08C287.91,118.35,285.93,116.1,284.13,116.51Zm-77.79,99.62c4.52-9.43,8.92-18.6,13.33-27.77a12.36,12.36,0,0,0-16.85,4.57C197.94,201.4,199.47,212.14,206.34,216.13Z"/><path class="cls-2" d="M398,169.85,311.33,69.53C320.26,61.9,328.89,54.19,337.9,47c4.92-4,12.46-2.62,16.64,2.21q34.71,40.14,69.39,80.3c4.62,5.36,5.21,12.78.18,17.6C415.88,155,406.93,162.11,398,169.85Z"/><path class="cls-2" d="M304,558.91H222.37V536.15H264c0-13.6.29-26.72-.14-39.81-.17-5.42-5.09-8.25-12.46-8.32-8-.07-15.92,0-24.12,0V465.63c.94-1.11,2.38-.64,3.63-.6,13,.45,26.13-1.3,39.05,1.92a31.87,31.87,0,0,1,23.15,25c1.75,9.92.49,19.86.89,29.78.17,4.15,0,8.31,0,12.63,1.12.42,2.18,1.23,3.16,1.14,7.37-.68,7.2,4,6.9,9.15C303.78,549.41,304,554.18,304,558.91Z"/><path class="cls-2" d="M156.7,187.28l-60.9,53.8L207.26,368.69c-6.44,3.49-13.3,2.75-17.8-2.32-10.8-12.19-21.37-24.59-32-36.91C145.82,316,134,302.71,122.64,289c-11.7-14.08-25.66-26.47-33-43.93a148.86,148.86,0,0,1-8.36-29A6.22,6.22,0,0,1,83.63,210q19.19-16.67,38.51-33.19c1.75-1.5,3.67-3,6.28-2.22C138.19,177.59,147.64,181.33,156.7,187.28Z"/><path class="cls-2" d="M450.82,465v23c-4.1,0-8.05.09-12,0-3.32-.1-4.89.08-4.09,4.59,1,5.69.26,11.7.26,17.57,0,14.44-.16,28.89.1,43.32.08,4.43-1.27,5.81-5.67,5.63-7.95-.32-15.92-.09-23.77-.09-1.11-2-.63-3.91-.64-5.68,0-20-.12-40,.06-60,0-4.1-1.08-5.55-5.34-5.44-10.65.28-21.31.09-32.72.09,0-6.87-.11-13.62.05-20.36.08-3.32,2.85-2.62,4.9-2.62q30.48,0,61,0Z"/><path class="cls-2" d="M176.93,590.67V488.06h-6.7V465.37h36.43v125.3Z"/><path class="cls-2" d="M533.19,488V465.66c1.37-1.14,2.93-.63,4.36-.64,13.66,0,27.32-.23,41,.05,8.73.19,17.28,2,24.36,7.45,7.84,6,11.76,14.66,12,24.27.46,20.48.14,41,.14,61.83H585.5c-1.06-1.48-.47-3.36-.47-5.12,0-17.49-.17-35,0-52.47.11-11-3.49-12.49-12.88-12.89C559.38,487.59,546.54,488,533.19,488Z"/><path class="cls-2" d="M460,536c4.51,0,8.36-.36,12.13.08,5.81.67,8.54-2.79,8.72-8.19.44-13.11.14-26.24.14-39.86H465c0-6.95,0-13.4,0-19.85,0-2.36,1.19-3.2,3.43-3.2,14,0,27.95,0,41.75,0,1.32,1.53.8,3.1.81,4.52,0,20,.2,40-.06,60-.12,9.21-2.46,17.81-10,24.13-7.35,6.16-15.85,8-25.11,6.74-3.89-.51-7.84-.19-11.71-1.26-2.62-.73-4.13-1.79-4.11-4.62C460,548.5,460,542.54,460,536Z"/><path class="cls-2" d="M70.9,143.08c5.62-4,12.23-4.68,18.69-5.87a6.39,6.39,0,0,1,6.31,2.12c1.21,1.37,2.59,2.58,3.77,4,5.9,7,5.69,7.31-1.37,13.27-11,9.32-21.89,18.86-32.74,28.39-4.35,3.82-5,3.48-9.48-.19-7.23-5.94-8-12.62-4-20.55,1.71-3.38,3-7,6.09-10q-8.31-9.6-16.56-19.16c-7.58-8.8-15.07-17.69-22.75-26.4-2.87-3.26-2.36-5.92.59-8.53,1.62-1.43,3.34-2.73,5-4,2.44-1.9,4.71-1.34,6.58.81q16,18.43,31.9,36.94Z"/><path class="cls-2" d="M351.81,465.33v54.18H323c0-9.72,0-18.95,0-28.18,0-2.7-1.41-3.41-3.79-3.35-3.16.08-6.32,0-9.85,0V465.33Z"/><path class="cls-2" d="M533,559c0-13.59-.11-26.53.06-39.47A19.25,19.25,0,0,1,537.61,508c.79-1,1.63-2,3.22-2,7.28.06,14.56,0,21.75,0-1.19,16.08-.46,31.77-.47,47.45,0,4.38-1.24,5.82-5.65,5.63C548.86,558.76,541.23,559,533,559Z"/><path class="cls-2" d="M110,155.8c4.76,0,9.68,3.74,11.43,8.3,1.64,4.27.21,8-2.94,10.77-11,9.61-22.11,19-33.27,28.43-4.86,4.09-10.13,3.68-14-.8-5.28-6.12-5.64-11.1-.5-15.61,11.09-9.72,22.42-19.18,33.6-28.81A8.5,8.5,0,0,1,110,155.8Z"/><path class="cls-3" d="M313.83,643.37,347,638.91a161.07,161.07,0,0,1-33.08,6C313.9,644.39,313.86,643.88,313.83,643.37Z"/><path class="cls-2" d="M313.83,643.37c0,.51.07,1,.11,1.53l-6,.66c0-.58,0-1.15.05-1.73Z"/><path class="cls-3" d="M308,643.83c0,.58,0,1.15-.05,1.73a3.43,3.43,0,0,1-3,.35c0-.63,0-1.27,0-1.9C306,643.74,306.94,642.86,308,643.83Z"/><path class="cls-2" d="M633.05,369.94c.83.21,1.18.94.64,1.42s-.93-.42-1.33-.79A4.57,4.57,0,0,0,633.05,369.94Z"/><path class="cls-2" d="M632.06,368.94l1,1a4.57,4.57,0,0,1-.69.63l-.93-.88A3.8,3.8,0,0,1,632.06,368.94Z"/><path class="cls-2" d="M296.5,443.57c-.39.12-1,.45-1.13.33-.36-.45-.11-.88.4-1.13Z"/></g></g></g></svg>