<svg xmlns="http://www.w3.org/2000/svg" viewBox="0 0 616.86 604.26"><defs><style>.cls-1{fill:#39698d;}.cls-2{fill:#34668a;}.cls-3{fill:#33658a;}.cls-4{fill:#336589;}.cls-5{fill:#35668a;}</style></defs><g id="Layer_2" data-name="Layer 2"><g id="Layer_1-2" data-name="Layer 1"><path class="cls-1" d="M231.12,604.26c-7.34-.67-14.68-1.37-22-2-36.3-3.12-71.29-11.12-103.73-28.25-8.91-4.7-17.3-10.35-26-15.51-3-1.81-2.87-3.19-.29-5.62,3.61-3.4,6.63-7.44,10.93-12.39,4.37.26,7.62,5.32,11.42,9.08a122.35,122.35,0,0,0,45,28.24c8.46,3.08,16.67,7,25.32,9.35,13.35,3.63,26.85,7.35,40.52,9,18.46,2.24,37.14,2.77,55.74,3.63,7.29.34,14.63-.45,21.94-.69,1.92-.07,3.84,0,5.76,0l.06,1.61c-12.85.87-25.69,1.7-38.54,2.62a44.86,44.86,0,0,0-5.08.94Z"/><path class="cls-2" d="M286.59,68.75C284.06,63.38,281.44,58,279,52.62c-3.54-7.91-2.25-12.76,4.89-18.38l86.28,99.9c-.78.82-1.63,1.73-2.54,2.68a1.4,1.4,0,0,0,.33.49c10.41,8.66,20.46,17.81,31.33,25.84,13.62,10,27.71,19.47,42,28.56,10,6.38,20.68,11.69,31,17.59,25.58,14.61,51.56,28.57,76.49,44.21,13.08,8.21,25.1,18.57,36.13,29.45a159.16,159.16,0,0,1,30.3,41.25,4,4,0,0,0-.63.74c-22.8-19.44-45-39.6-68.61-58-13.38-10.45-28.77-18.4-43.59-26.89-21.33-12.21-43.28-23.37-64.37-36a420.88,420.88,0,0,1-58.43-41.82C373.32,156.91,366.9,151.8,361,147c-5.52,6.08-11.11,12.22-16.69,18.35l-1.75-1c.36-1.23.42-2.68,1.12-3.66,2.49-3.44,5.81-6.42,7.62-10.16,1.51-3.1,2.76-7.6,1.6-10.44-1.95-4.79-9.28-7-14.13-5.39a39.65,39.65,0,0,0-8.45,4.08c-20.9,13.07-41.81,26.13-62.55,39.45a243.79,243.79,0,0,0-21.17,15.41c-1.87,1.51-2.33,4.77-3.66,7.71l-2.25-3.29a68.16,68.16,0,0,0-4.49-6.5c-5.25-6-6.34-5.87-12-.25a21.63,21.63,0,0,1-7.32,4.19c14-12.47,18.15-34.73,9.14-51.34-1.87-3.45-4.27-6.5-8.79-6.2-4.14.28-5.09,3.53-6.63,6.75q-8.17,17.08-17.15,33.78c-4.55,8.45-4.32,13.92,2.43,20.86Q210,213.86,224.47,228c4.05,3.95,9.29,3.88,14.36,2.78,8.19-1.79,16.22-4.35,24.45-5.87,10.11-1.86,20.36-4.17,30.55-4.15,13.16,0,23.42-4.45,31.56-14.34,2.25-2.73,3.76-6.07,5.74-9,1-1.44,2.24-2.69,4.12-4.9.73,4.75,1.34,8.36,1.81,12,1.26,9.65,6.47,17.46,12.45,24.55,19.13,22.69,38.07,45.59,51.1,72.41,8.49,17.47,15.05,35.88,22.53,53.85,3,7.3,6.23,14.53,9.32,21.81a33.07,33.07,0,0,1,1,3.41,9.71,9.71,0,0,1-2.06-1c-22.8-21.68-49.68-26-79.27-18.5-25.46,6.45-47.6,19.43-68.43,35-1.33,1-2.69,2-4,2.93l-.73-.8c2.25-6,4.84-11.95,6.63-18.11a15.92,15.92,0,0,0,0-9.25c-5.16-14.13-16.48-22.57-29.11-29.22-14.06-7.41-29.46-10.52-45.16-12.19-4.4-.47-8.79-1-13.34-1.57,5.47-9.29,8-10.7,18.15-8.72,13.13,2.56,26.49,4.54,39.18,8.58,21.12,6.73,39,18.72,51.27,37.71,44.16-20.19,48.92-20.71,85.29-23.38,4.29-17.37-2.26-32.47-10-47.33-8.16-15.73-19.67-29.06-31.87-41.55-8.52-8.72-19-15.58-28.73-23a6.72,6.72,0,0,0-5.63-.57c-7.81,3.28-15.71,3.41-24.12,3.18-12.06-.33-24.21,1-36.25,2.28-8.64.91-17.16,2.86-26.39,4.46,5.62,6.69,10.91,12.83,16,19.12,5.54,6.82,5.24,14.87-1.35,20.85C232.4,289.35,221,299,209.65,308.81c-2.12,1.84-4.28,3.63-6.77,5.75L100.35,197.41l51.82-46,22.22,24.76,1.39-.36c-.13-1.48.06-3.08-.45-4.41-6.37-16.45-2.28-28.82,12.54-38.12a5.36,5.36,0,0,0,2.27-3.68c.42-12.18,11.28-25.56,23.15-28.53a6.62,6.62,0,0,0,3.77-3c5.19-10,13.43-15.28,24.66-16.76a1.06,1.06,0,0,0,.4-.54c2.54-14.9,16.32-23,33.62-16.29,3.55,1.37,6.91,3.23,10.36,4.86l.57.7Zm-22,71.41c5.16-.84,11.77-5,13.31-9,2.42-6.23-.75-10.8-4.79-14.84-7.66-7.65-15.68-14.94-23.22-22.7-3.59-3.68-7.68-4.5-11.5-2.08a44.84,44.84,0,0,0-10.53,9.92c-1,1.19-.48,5,.75,6.26,9.28,9.39,18.85,18.51,28.5,27.53C259.23,137.24,262.05,138.53,264.56,140.16Zm-58-2.94c4.1-4.48,8.41-6.5,11.64-5.57,8.17,2.33,16.45,12.44,17.09,20.84.35,4.71,6,9.78,10,7.85a22.84,22.84,0,0,0,9.3-8.85c2-3.52,1.34-7.91-2.2-11.25q-12.14-11.48-24-23.23c-8.46-8.38-14.46-7.84-22.78.62C198.79,124.51,196.87,132.68,206.56,137.22Zm60.58-65.44c-7.5.47-11.83,3.44-14.38,9-2.2,4.81.21,8.42,3.42,11.42q11.07,10.32,22.56,20.19c3.47,3,8.38,2.63,12.15-.25,4-3,5.08-7,3-11.61a23.19,23.19,0,0,0-3.52-5.92c-5.71-6.48-11.51-12.9-17.53-19.1C271,73.66,268.4,72.59,267.14,71.78Zm-64.31,71.73c-6.54-3.43-14-2-18.22,8.35-3.26,7.95-1.16,16.79,5,19.3Z"/><path class="cls-3" d="M294.46,24.8c8.69-7.46,17.07-14.78,25.59-21.92a12.69,12.69,0,0,1,17.84,1.78q34.51,40,69.05,79.94c4.79,5.54,5.29,13.09.1,18-8.18,7.73-17,14.79-26,22.51Z"/><path class="cls-4" d="M210.31,444.26V421.19h32.78A35.73,35.73,0,0,1,265,428.43c8.58,6.32,11.55,15.21,12,25,.55,11,.25,22,.06,33-.06,3.46,1.31,4.91,4.51,4.81,5.13-.17,7.11,2.15,6.63,7.27a99.74,99.74,0,0,0,0,12c.09,2.82-1.12,3.81-3.87,3.8-26.15,0-52.29,0-78.8,0V491.39h41.63c0-13.43.16-26.37-.08-39.3-.09-4.69-4.05-7.81-8.85-7.82C229,444.24,219.9,444.26,210.31,444.26Z"/><path class="cls-5" d="M140.78,141.69,78.92,196.34,190.39,324c-6.51,3.47-13.33,2.73-17.82-2.34-10.7-12.06-21.17-24.32-31.71-36.52-11.73-13.57-23.65-27-35.11-40.81C94.68,231,80.93,219.46,74.26,203c-4.12-10.18-6.77-21-9.64-31.62-.47-1.73.76-4.76,2.21-6.05q19-16.86,38.5-33.21c1.59-1.34,4.54-2.67,6.16-2.08C121,133.44,130.35,137.45,140.78,141.69Z"/><path class="cls-4" d="M388.3,444.22H351.4V420.51h82.48v23.37H418.2v70H388.3Z"/><path class="cls-4" d="M190.12,546.06H160.3V444.28c-2.33-.25-4.89.2-6.1-.87s-1-3.6-1-5.51c-.13-4.49.07-9-.08-13.49-.09-2.92.88-4.23,4-4.19,9.66.12,19.32.09,29,0,2.58,0,4.09.58,4.09,3.57C190.1,464.43,190.12,505.05,190.12,546.06Z"/><path class="cls-4" d="M598.12,514.05h-30v-5.26q0-27.48,0-55c0-6.89-2.66-9.57-9.49-9.57-12.65,0-25.31-.1-38,.05-3.5.05-4.76-1.13-4.61-4.62.23-5,.18-10,0-15-.11-3.1.77-4.55,4.19-4.51,13.32.13,26.66-.38,40,.19,11,.46,21.78,2.3,29.8,11.22,4.76,5.3,7.84,11.54,8,18.45C598.36,471.2,598.12,492.35,598.12,514.05Z"/><path class="cls-4" d="M464.12,444.25H449.41V420.52h44.71v10.05c0,18.65-.11,37.3,0,55.94.11,14.38-10,28.13-25.31,28.66-7.42.25-14.88-.49-22.3-1.07-.88-.07-2.28-1.94-2.32-3-.21-6.45-.1-12.91-.1-19.75,4.86,0,9.32.18,13.76,0s5.59-3.79,6.2-7.47a17.53,17.53,0,0,0,0-3Z"/><path class="cls-2" d="M40.78,108.92C31.35,98,21.68,86.85,12,75.68c-3.47-4-6.82-8.15-10.35-12.11-2.56-2.87-2.07-5.39.53-7.76,1.71-1.56,3.55-3,5.37-4.43,2.43-1.9,4.72-1.37,6.58.78q16.16,18.65,32.2,37.35c2.48,2.88,5,5.74,6.89,7.93,6.62-1.72,12.72-3.61,19-4.74,2.08-.38,4.67.9,6.72,2,1.53.82,2.66,2.48,3.83,3.88,5.91,7,5.7,7.34-1.33,13.27-11,9.32-21.89,18.86-32.74,28.39-4.37,3.84-5,3.5-9.49-.17-7.2-5.93-8.12-12.62-4-20.52C37,116.19,38.71,112.86,40.78,108.92Z"/><path class="cls-4" d="M306.27,475.26v-31c-3.55,0-6.8-.12-10,0-3,.14-4.24-.94-4.15-4,.16-5.32.15-10.66,0-16-.09-3.06,1.13-4.09,4.12-4.07q18,.16,36,0c3.12,0,4,1.26,4,4.19-.08,15.65,0,31.3-.18,46.95,0,1.31-2,3.68-3.06,3.72C324.15,475.39,315.36,475.26,306.27,475.26Z"/><path class="cls-4" d="M545.45,514.06H517.12c0-14.38-.53-28.58.22-42.71.38-7.31,4.84-10.09,12-10.09h16.12Z"/><path class="cls-2" d="M92.2,111.08a13.19,13.19,0,0,1,12.27,8.17c1.8,4.47.22,8.21-3.13,11.12Q85,144.54,68.43,158.46c-4.94,4.16-10.11,3.84-14-.59-5.47-6.22-5.71-11.29-.34-16q16.5-14.35,33.29-28.4A18.12,18.12,0,0,1,92.2,111.08Z"/><path class="cls-2" d="M616.17,325.21l.69,1.46-1.38-.84A4.08,4.08,0,0,0,616.17,325.21Z"/><path class="cls-2" d="M615.18,324.21l1,1a4.08,4.08,0,0,1-.69.62l-.92-.88A3.64,3.64,0,0,1,615.18,324.21Z"/><path class="cls-2" d="M279.62,398.83l-1.18.37.45-1.17Z"/></g></g></svg>