<svg xmlns="http://www.w3.org/2000/svg" viewBox="0 0 1965.66 2179.37"><g id="Layer_2" data-name="Layer 2"><g id="Layer_1-2" data-name="Layer 1"><path d="M232.34,2179.37c-3.41-1.22-6.72-3-10.24-3.57-39.26-6.34-79-42.5-79.1-100.28q-.1-84.45,0-168.91v-12.68c-13.24,0-25.15-.11-37.07,0a110.93,110.93,0,0,1-32.55-4.15c-34.78-10-57.8-32.31-67.59-67-3.57-12.63-5-26.2-5.27-39.38-.68-38-.62-76-.1-113.94.33-24,5.59-46.85,20.64-66.55,19.28-25.23,45.15-37.71,76.4-39.23,14.58-.72,29.23-.13,43.64-.13,2.36-7.87,2.79-937.86.42-949.27-12.35,0-24.93.27-37.5-.1-7.94-.23-16-.64-23.76-2.28C38,603,9.29,572.65,2.51,529.83A178.41,178.41,0,0,1,.36,503c-.23-37.65-.49-75.3,0-112.94.39-29.18,8.28-55.86,29.73-77.16,18.36-18.22,40.71-27.42,66.24-28.66,14.91-.73,29.89-.14,46-.14.23-4.55.6-8.38.6-12.21,0-56.64-.2-113.28.12-169.92.16-28.38,9-53.66,29.77-73.93C191.6,9.73,214.22.17,240.3.13q209.88-.29,419.77,0A96.87,96.87,0,0,1,756,81.44a123.35,123.35,0,0,1,1.86,19.83q.21,84.95.08,169.91V284c12.71,0,24.28.2,35.84-.06a113.14,113.14,0,0,1,34.55,4.27c34.32,10.07,56.63,32.46,67.18,66.45a112.94,112.94,0,0,1,4.63,34.5c-.27,41.64.33,83.29-.24,124.93-.49,36-15.22,64.94-45.9,85-15.21,9.92-32.18,14.27-50,15.16-11.63.58-23.32.12-35,.12h-10.4V816.7c3.22.16,6.43.45,9.64.46q90.45,0,180.9,0c162.43,0,305.05-108.23,351.34-263.2.86-2.86,1.62-5.74,2.6-9.25-7.75-1.48-15.11-3-22.51-4.29-33.94-6-70-37.81-71-86.51-1-50.62-1.27-101.31.08-151.91,1.32-49.66,38.53-87.25,91.94-89.29,4.27-.16,8.56,0,14.11,0V201.17c0-36.32-.49-72.64.15-108.94.57-31.91,13.49-58,40.15-76.45,15.83-11,33.58-15.73,52.71-15.73h287.84c23.32,0,46.64.1,70,0,49.88-.24,91.69,37.08,92.76,92.39.7,36,.14,72,.14,108v12c4.85.13,9,.18,13.23.36,26.29,1.14,49.55,9.48,68,29,16,17,24.56,37.3,24.75,60.5.4,50.64.65,101.29,0,151.92-.6,44.37-32.65,78.32-69.15,85.81-10,2.06-20.4,2.58-30.63,3.59-3.53.35-7.11.05-10.89.05-2.39,16.62-4.4,32.08-6.86,47.47C1826.14,726,1778,850.3,1700.65,963.15q-132.92,194-342.67,300.42c-71.57,36.51-147.09,61.79-225.67,78.24-64.14,13.43-129,19.39-194.46,19.16-55.64-.2-111.27,0-166.91,0h-12.4v202.63c12.08,0,24,.25,35.83-.07a107.9,107.9,0,0,1,33.55,4.14c35.09,10.26,57.68,33.09,67.94,68.09,3.29,11.25,4.3,22.79,4.23,34.56-.25,41.31.4,82.63-.25,123.93-.55,35.21-14.94,63.66-44.72,83.58-14.8,9.91-31.33,14.65-48.83,15.77-12.28.78-24.64.3-37,.37-3.28,0-6.56,0-10.93,0-.19,4.54-.48,8.39-.48,12.25,0,57.3.4,114.61-.17,171.91-.36,36-15.37,64.89-46,84.91-9,5.9-19,9.58-29.37,12.13-4.81,1.18-9.5,2.81-14.24,4.24ZM639.4,1563.28c2.27-15.38,1.46-941.61-.66-948.34H261.59c-2.23,14.1-1.5,941.37.71,948.34Zm118.91-319.57h9.54c60.62,0,121.24.15,181.86,0,60.81-.19,121.1-6.22,180.19-20.62,158.24-38.57,293.44-117,403.54-237.4Q1696,807.94,1733,569.59c1.3-8.28,3.72-16.69,2.27-25.18-17.66-1.92-304.73-1.16-312.38.85-.4,1.71-.88,3.62-1.31,5.54Q1381.09,734.91,1228,844.93c-82.61,59.17-175.48,88-276.84,89.1-60.62.66-121.24.12-181.86.12h-11ZM640,116.75H630q-183.75.24-367.5.49c-.25,0-.51.4-.76.61l-.6.56V283.28H640Zm-.27,1944.12V1895c-14.07-2-371.48-1.41-378.55.53-2.05,17.58-1.15,158.31,1.14,165.37Zm142.31-1564V402.71c-11.75-2.28-655.72-1.79-662.95.4v93.72ZM782,1776v-94.16a15.42,15.42,0,0,0-3.35-.93q-326.64-.11-653.29-.12a35.86,35.86,0,0,0-4.92.58,1.72,1.72,0,0,0-.81.49,11.79,11.79,0,0,0-.86,1.09v93ZM1847.35,425.62c2.15-12.86,1.54-87.89-.63-94.84-20.44-2-512.66-1.09-519.95,1v93.88Zm-106.1-213.37v-94.4c-14.07-2.18-300.57-1.5-307.43.63v93.77Z"/></g></g></svg>