<svg id="Layer_1" data-name="Layer 1" xmlns="http://www.w3.org/2000/svg" viewBox="0 0 741.02 207.84">
    <defs>
        <style>
            .cls-1 {
                fill: #3d6c8f;
            }

            .cls-2 {
                fill: #336589;
            }

            .cls-3 {
                fill: #38698d;
            }

            .cls-4 {
                fill: #3f6e90;
            }

            .cls-5 {
                fill: #3c6c8f;
            }

            .cls-6 {
                fill: #cad6e0;
            }

            .cls-7 {
                fill: #d2dde5;
            }

            .cls-8 {
                fill: #f0f4f6;
            }

            .cls-9 {
                fill: #e3eaee;
            }

            .cls-10 {
                fill: #668ba7;
            }
        </style>
    </defs>
    <path class="cls-1"
        d="M1119.7,743.49c0,10.23,6.48,17,12.3,24.24,8.31,10.34,16.64,20.74,22.15,32.92,3.82,8.43,7.13,17.09,10.6,25.68a57.12,57.12,0,0,1,3.71,12.37,9.69,9.69,0,0,1-1.78-.93c-9.6-7.64-20.31-10.39-32.59-8.59-14.27,2.11-26.28,8.86-37.94,16.63-1.78,1.18-3.46,2.51-5.8,4.23,0-5,3.06-8.41,3.7-12.79-2.26-8.51-8.82-13.45-16.33-17.36s-16-5.32-24.43-6.22c-1.62-.18-3.25-.25-5-.39-.16-2.94,2.32-3.63,3.8-5.61,20.5,1.25,39.16,6.44,52.58,24.41,13.4-6.9,27.44-12.06,42.66-12.05,2.07-2.09,2-4.51,1.68-6.75a38.55,38.55,0,0,0-2-9.16,71.74,71.74,0,0,0-14.3-23.1q-7-7.41-14.44-14.35c-2.26-2.09-5.08-3.59-7.84-5.48-5.23,3.41-10.77,2.66-16.24,2.46-9.68-.36-19.08,1.47-28.76,3.58,2.2,5.68,8.54,8.43,9.29,14.91a13.54,13.54,0,0,1-5.19,7.85c-5.83,4.66-11.35,9.71-17,14.57a18.72,18.72,0,0,1-2.19,1.39l-53.11-60.7,27.08-24.14,10.93,12.17.81-.39c-.57-2.73-1.73-5.5-1.54-8.17a19.19,19.19,0,0,1,2.75-7.78c1.46-2.58,3.59-4.78,5.44-7.15.38.35.77.69,1.16,1,.12-1.8.24-3.6.37-5.51a23.65,23.65,0,0,1,12.83-10.85c2.71-5.14,6.92-8.88,13.25-9.56,4.38-11.52,12.07-12.83,22.4-6.22-.52-5.7-5-9.2-3.09-15l2.69-3.48c2.33,2.52,4.49,4.71,6.5,7q17.73,20.52,35.37,41.13a20.85,20.85,0,0,1,3.26,6.35c15,13.89,32.22,24.68,50,34.8,14.83,8.44,29.72,16.81,44.27,25.71,10.74,6.56,19.46,15.48,26.65,25.8a45.43,45.43,0,0,1,4.64,8.64,29.36,29.36,0,0,1-4.61-3c-15.49-14.89-32-28.33-51.13-38.48-15.94-8.46-32.17-16.54-46.83-27.19-8.71-6.33-17-13.21-25.51-19.83-.63-.49-1.32-.93-1.85-1.3-2.78.84-3.26,5-7,4.24,1-2.77,1.88-5.29,2.66-7.5-3.88-4.26-6.06-4.81-10.4-2.32-5.47,3.14-10.79,6.54-16.12,9.9-7.72,4.86-15.5,9.64-23,14.78-3,2.07-5.51,5-8.25,7.51l-5.55-6.85-5.72,4.32-.86-.59a19.11,19.11,0,0,0,5.92-13.5c0-5.12-.52-10.23-4.46-14.5h-3.63c-.26.23-.59.39-.73.66-3.36,6.64-6.84,13.22-10,20-1,2.15-1.1,4.7-1.64,7.22l20.2,19.08c2.29.71,5.49-.33,8.75-1,5.68-1.09,11.4-2,17.11-2.93,4.56-.73,9.16-1.26,13.71-2.09,5.07-.93,8.51-4.21,11.22-8.38,1-1.59,2.16-3.15,3.23-4.72Zm-43.32-54.65-2.4,1.44c-6.53-.56-9,1.07-10.76,6.75,5.38,5.57,10.56,11.08,15.91,16.42,2.36,2.36,5.17,2.19,8.06,0s3.45-4.49,1.87-7.71a22.63,22.63,0,0,1-1.07-3.48,14.23,14.23,0,0,1,3.3-.21c2.94.49,5.25-.19,7.09-3.84-1-8.06-8.19-12.28-12.86-17.62-4.87-1.16-7.23,1.21-9.43,4.67C1076.17,686.25,1076.28,687.54,1076.38,688.84Zm1.35,28.88c-5.48-7.68-15-16-20-17.42-4.41,1-6.74,4.32-8.67,8.12,0,2.32.48,4.24,2.81,5l6.41-2.51c7,4.29,7.59,5.12,9.69,13.34l4.48,2.17C1077.82,722.48,1077.84,722.45,1077.73,717.72Zm-33.57,13.53c1.68-4.87,5-9,6.1-14.2-5.21-1.31-7.77.17-9.64,5.24C1039.16,726.25,1040.34,729.47,1044.16,731.25Z"
        transform="translate(-521.97 -642.52)" />
    <path class="cls-2"
        d="M579.79,725.14c9.31,0,18.66-.44,28,.14,7.56.47,15.24,1.25,22.12,5.21,8.44,4.85,13.24,12,15.24,21.47A62.17,62.17,0,0,1,646,764.7c0,9.79,0,19.58,0,29.29,2.87,3.38,8.09.36,10.71,4.31v20.09c-9.32.85-18.41.27-27.48.38s-18.33,0-27.49,0H574.2V795.92c13.66-.1,27.4,0,41.46-.06V755.39l-1.86-3.78L610,748.94H579.52C578.62,742.79,578.79,728.61,579.79,725.14Z"
        transform="translate(-521.97 -642.52)" />
    <path class="cls-2" d="M757.18,749.05H720.3V725.42h82.41v23.29H787.16v69.77h-30Z"
        transform="translate(-521.97 -642.52)" />
    <path class="cls-2"
        d="M529.19,748.71h-6.25c-1.22-3.9-1.29-18.69-.21-22.78,3.32-1,28.89-1.23,35.79-.27.15,1.56.45,3.28.46,5q0,24.65,0,49.28v70.43H529.19Z"
        transform="translate(-521.97 -642.52)" />
    <path class="cls-2"
        d="M937.31,756.13c-1.92-5.61-5.13-7.21-9.86-7.14-12.16.18-24.33.06-36.49.06h-5.53c-.88-7.91-.21-15.41-.49-23.31a36.31,36.31,0,0,1,4.25-.58c13.17,0,26.35-.45,39.49.16,6.54.31,13.23.72,19.54,3.67,9.22,4.3,15.21,11,17.71,20.7a37.92,37.92,0,0,1,1,9.21c.1,18.1,0,36.19,0,54.29v5.27H937.31Z"
        transform="translate(-521.97 -642.52)" />
    <path class="cls-2"
        d="M829.91,795c3.11-3.42,3.15-6.82,3.12-10.31-.08-10.12,0-20.24,0-30.35v-5.1h-15c-.1-7.94,0-15.64,0-23.21l.49-.49c.12-.1.26-.27.39-.27h43.79c.11,1.28.31,2.53.32,3.78,0,21.23.16,42.46-.08,63.68a26.29,26.29,0,0,1-6.49,17.39c-5,5.83-11.11,8.59-18.67,9.94-6.9,1.24-13.25-.12-19.81-1.16-1.28-.2-2.6-.21-3.78-.29-1.42-3.36-1.73-12.84-.75-22.86,2.34.32,4.73.46,7,1C824.08,797.5,827.18,796.05,829.91,795Z"
        transform="translate(-521.97 -642.52)" />
    <path class="cls-2"
        d="M675,749.33c-4.77-.79-9.29.44-13.41-.79-1.12-6.54-.8-19.89.67-23.43,13.94.13,28.1-.16,42.09.2,1.26,7.38.85,51-.45,54.36H675c0-4.89,0-9.95,0-15Z"
        transform="translate(-521.97 -642.52)" />
    <path class="cls-3"
        d="M1143.07,708l-44.9-52.09c2.09-2,3.82-3.71,5.64-5.34,2.35-2.09,4.72-4.17,7.18-6.12,3.6-2.84,7-2.49,10,1q17.7,20.49,35.33,41c3,3.44,3.36,6.31.44,9.25C1152.64,699.87,1148,703.6,1143.07,708Z"
        transform="translate(-521.97 -642.52)" />
    <path class="cls-2" d="M914.3,818.56H885v-7.43c0-8.44.2-16.89-.06-25.33-.22-7.29,1.37-13.84,6.52-19.63H914.3Z"
        transform="translate(-521.97 -642.52)" />
    <path class="cls-4"
        d="M1001,710.41c6.35,0,11.57,2.9,17.18,6.33L987,744.45c8.94,11.86,19.18,22.2,28.59,33.22s19,22,28.56,33c-3.58,2.32-6.29,2.17-9.13-.71-3.26-3.3-6.25-6.86-9.28-10.37q-14.61-16.92-29.17-33.89c-5.3-6.14-11.09-12-13.92-19.79-1.73-4.79-3-9.73-4.53-14.64l2-3c.32-.08.74,0,.95-.24Q991.07,719.23,1001,710.41Z"
        transform="translate(-521.97 -642.52)" />
    <path class="cls-1"
        d="M970.87,715.77l-1.78,1.2c-3.67-.17-4.85-3.44-6.92-5.61-.3-4.51,2.06-8,4.11-12l-21.39-24.89c1.21-3.34,3.6-4.67,6.6-6.18L973,692.93l10.41-2.53c3.6.91,5.57,3.48,7.31,6.69l-.75,4.15-.45,0-1.67-.17c-2.6,2-5.33,3.8-7.78,6C976.89,709.78,973.93,712.83,970.87,715.77Z"
        transform="translate(-521.97 -642.52)" />
    <path class="cls-5"
        d="M989.53,701.21l.45,0,6.27-1.3,3.8,4.23c-.2,1.67-.4,3.28-.59,4.88L979.3,725.94l-3.37.4-4.16-4.13-.13-3.14.78-1.77c3.54-2.91,7.15-5.74,10.61-8.75,2.19-1.91,4.16-4.08,6.22-6.13C989.35,702,989.44,701.61,989.53,701.21Z"
        transform="translate(-521.97 -642.52)" />
    <path class="cls-6"
        d="M975.93,726.34l3.37-.4,20.16-16.89,1.58,1.36q-10,8.8-20,17.61c-.21.19-.63.16-.95.24-.89-2.26-2.19-.11-3.57-.35Z"
        transform="translate(-521.97 -642.52)" />
    <path class="cls-7"
        d="M989.25,702.42c-2.06,2.05-4,4.22-6.22,6.13-3.46,3-7.07,5.84-10.61,8.75l-1.55-1.53c3.06-2.94,6-6,9.21-8.78,2.45-2.15,5.18-4,7.78-6Z"
        transform="translate(-521.97 -642.52)" />
    <path class="cls-7" d="M971.64,719.07l.13,3.14-1.7-1.26Z" transform="translate(-521.97 -642.52)" />
    <path class="cls-8"
        d="M1077.73,717.72c.11,4.73.09,4.76-5.26,8.67l-4.48-2.17c-2.1-8.22-2.7-9.05-9.69-13.34l-6.41,2.51c-2.33-.73-2.86-2.65-2.81-5,1.93-3.8,4.26-7.13,8.67-8.12C1062.74,701.72,1072.25,710,1077.73,717.72Z"
        transform="translate(-521.97 -642.52)" />
    <path class="cls-9"
        d="M1044.16,731.25c-3.82-1.78-5-5-3.54-9,1.87-5.07,4.43-6.55,9.64-5.24C1049.2,722.23,1045.84,726.38,1044.16,731.25Z"
        transform="translate(-521.97 -642.52)" />
    <path class="cls-10" d="M1076.38,688.84l3.84,4.26-2.14,1.13-4.1-4Z" transform="translate(-521.97 -642.52)" />
    <path class="cls-1" d="M1083.3,696c1.23.83,2.51,1.59,3.67,2.51s2.14,2.1,1,3.74c-3,.08-4.29-2.24-5.94-4.07Z"
        transform="translate(-521.97 -642.52)" />
    <path class="cls-10" d="M1083.3,696l-1.26,2.18-2.39-2.62,1.9-.37Z" transform="translate(-521.97 -642.52)" />
    <path class="cls-1" d="M1081.55,695.18l-1.9.37-1.57-1.32,2.14-1.13Z" transform="translate(-521.97 -642.52)" />
</svg>